<?xml version="1.0" encoding="utf-8"?>
<!-- Generator: Adobe Illustrator 19.0.1, SVG Export Plug-In . SVG Version: 6.00 Build 0)  -->
<svg version="1.1" id="Layer_1" xmlns="http://www.w3.org/2000/svg" xmlns:xlink="http://www.w3.org/1999/xlink" x="0px" y="0px"
	 viewBox="0 0 1280 800" style="enable-background:new 0 0 1280 800;" xml:space="preserve">
<style type="text/css">
	.st0{fill:none;stroke:#506EB0;stroke-width:9;stroke-miterlimit:10;}
</style>
<g>
	<path d="M175.1,474.4h21.2l36.7,97.8l36.8-97.8H291v116.4h-14.7v-96.8H276l-36.3,96.8h-13.2l-36.3-96.8h-0.3v96.8h-14.7V474.4z"/>
	<path d="M318.2,474.4h15.5v116.4h-15.5V474.4z"/>
	<path d="M360.6,474.4h15.5v103.3h61.6v13h-77.1V474.4z"/>
	<path d="M452,474.4h15.5v103.3h61.6v13H452V474.4z"/>
	<path d="M543.5,474.4H559v50h61.3v-50h15.5v116.4h-15.5v-53.3H559v53.3h-15.5V474.4z"/>
	<path d="M711.2,471.6c37,0,55.7,29.2,55.7,61c0,31.8-18.7,61-55.7,61c-37,0-55.7-29.2-55.7-61C655.4,500.8,674.2,471.6,711.2,471.6
		z M711.2,580.5c28.4,0,40.3-24.4,40.3-47.9c0-23.5-11.9-47.9-40.3-47.9c-28.4,0-40.3,24.4-40.3,47.9
		C670.9,556,682.8,580.5,711.2,580.5z"/>
	<path d="M879.6,548.7c0,29.5-16.6,44.8-45.8,44.8c-30,0-47.8-13.9-47.8-44.8v-74.3h15.5v74.3c0,20.7,11.6,31.8,32.3,31.8
		c19.7,0,30.3-11.1,30.3-31.8v-74.3h15.5V548.7z"/>
	<path d="M972.5,508.5c-1.8-16.8-12.7-23.8-28.8-23.8c-13.2,0-26.1,4.7-26.1,19.9c0,28.7,74.5,8.5,74.5,54.3
		c0,24.8-24.3,34.7-45.5,34.7c-26.1,0-48.1-12.9-48.1-41.1h14.7c0,19.6,16.3,28,33.9,28c14,0,29.5-4.4,29.5-21.2
		c0-31.9-74.5-10.9-74.5-53.6c0-23.5,20.9-34.1,42.2-34.1c23.8,0,42.1,11.2,42.9,36.8H972.5z"/>
	<path d="M1011.6,474.4h80.4v13h-64.9v37h60.5v13h-60.5v40.3h65.4v13h-80.8V474.4z"/>
</g>
<polygon points="726.9,398 753,398 672.9,199 635,292.9 596.3,199 515.5,398 541.6,398 595.5,259.5 623.4,326.3 594.2,391 635,391 
	674.3,391 645.1,326.3 673,259.5 "/>
<rect x="114.5" y="129.5" class="st0" width="1050" height="541"/>
</svg>
