<?xml version="1.0" encoding="utf-8"?>
<!-- Generator: Adobe Illustrator 19.0.1, SVG Export Plug-In . SVG Version: 6.00 Build 0)  -->
<svg version="1.1" id="Layer_1" xmlns="http://www.w3.org/2000/svg" xmlns:xlink="http://www.w3.org/1999/xlink" x="0px" y="0px"
	 viewBox="334 -4 1280 800" style="enable-background:new 334 -4 1280 800;" xml:space="preserve">
<style type="text/css">
	.st0{fill:#FFFFFF;}
	.st1{fill:none;stroke:#506EB0;stroke-width:9;stroke-miterlimit:10;}
</style>
<g id="Layer_2">
	<rect x="448.5" y="125.5" class="st0" width="1050" height="541"/>
</g>
<g>
	<path d="M509.1,470.4h21.2l36.7,97.8l36.8-97.8H625v116.4h-14.7V490H610l-36.3,96.8h-13.2L524.2,490h-0.3v96.8h-14.7V470.4H509.1z"
		/>
	<path d="M652.2,470.4h15.5v116.4h-15.5V470.4z"/>
	<path d="M694.6,470.4h15.5v103.3h61.6v13h-77.1V470.4z"/>
	<path d="M786,470.4h15.5v103.3h61.6v13H786V470.4z"/>
	<path d="M877.5,470.4H893v50h61.3v-50h15.5v116.4h-15.5v-53.3H893v53.3h-15.5V470.4z"/>
	<path d="M1045.2,467.6c37,0,55.7,29.2,55.7,61s-18.7,61-55.7,61c-37,0-55.7-29.2-55.7-61C989.4,496.8,1008.2,467.6,1045.2,467.6z
		 M1045.2,576.5c28.4,0,40.3-24.4,40.3-47.9s-11.9-47.9-40.3-47.9c-28.4,0-40.3,24.4-40.3,47.9
		C1004.9,552,1016.8,576.5,1045.2,576.5z"/>
	<path d="M1213.6,544.7c0,29.5-16.6,44.8-45.8,44.8c-30,0-47.8-13.9-47.8-44.8v-74.3h15.5v74.3c0,20.7,11.6,31.8,32.3,31.8
		c19.7,0,30.3-11.1,30.3-31.8v-74.3h15.5V544.7z"/>
	<path d="M1306.5,504.5c-1.8-16.8-12.7-23.8-28.8-23.8c-13.2,0-26.1,4.7-26.1,19.9c0,28.7,74.5,8.5,74.5,54.3
		c0,24.8-24.3,34.7-45.5,34.7c-26.1,0-48.1-12.9-48.1-41.1h14.7c0,19.6,16.3,28,33.9,28c14,0,29.5-4.4,29.5-21.2
		c0-31.9-74.5-10.9-74.5-53.6c0-23.5,20.9-34.1,42.2-34.1c23.8,0,42.1,11.2,42.9,36.8L1306.5,504.5L1306.5,504.5z"/>
	<path d="M1345.6,470.4h80.4v13h-64.9v37h60.5v13h-60.5v40.3h65.4v13h-80.8L1345.6,470.4L1345.6,470.4z"/>
</g>
<polygon points="1060.9,394 1087,394 1006.9,195 969,288.9 930.3,195 849.5,394 875.6,394 929.5,255.5 957.4,322.3 928.2,387 
	969,387 1008.3,387 979.1,322.3 1007,255.5 "/>
<rect x="448.5" y="125.5" class="st1" width="1050" height="541"/>
</svg>
